<?xml version="1.0" encoding="UTF-8" standalone="no"?>
<!-- Created with Inkscape (http://www.inkscape.org/) -->

<svg
   width="210mm"
   height="297mm"
   viewBox="0 0 210 297"
   version="1.1"
   id="svg1"
   xml:space="preserve"
   inkscape:version="1.3 (0e150ed6c4, 2023-07-21)"
   sodipodi:docname="user-present.svg"
   xmlns:inkscape="http://www.inkscape.org/namespaces/inkscape"
   xmlns:sodipodi="http://sodipodi.sourceforge.net/DTD/sodipodi-0.dtd"
   xmlns="http://www.w3.org/2000/svg"
   xmlns:svg="http://www.w3.org/2000/svg"><sodipodi:namedview
     id="namedview1"
     pagecolor="#ffffff"
     bordercolor="#000000"
     borderopacity="0.25"
     inkscape:showpageshadow="2"
     inkscape:pageopacity="0.0"
     inkscape:pagecheckerboard="0"
     inkscape:deskcolor="#d1d1d1"
     inkscape:document-units="mm"
     inkscape:zoom="2.0686841"
     inkscape:cx="425.39119"
     inkscape:cy="546.96605"
     inkscape:window-width="1920"
     inkscape:window-height="1017"
     inkscape:window-x="-8"
     inkscape:window-y="1072"
     inkscape:window-maximized="1"
     inkscape:current-layer="layer1" /><defs
     id="defs1"><clipPath
       id="clip0"><rect
         x="202"
         y="594"
         width="100"
         height="100"
         id="rect1" /></clipPath></defs><g
     inkscape:label="Calque 1"
     inkscape:groupmode="layer"
     id="layer1"><g
       id="g3"><g
         style="overflow:hidden"
         id="g1"
         transform="matrix(0.26458333,0,0,0.26458333,91.860358,135.08996)"><g
           clip-path="url(#clip0)"
           transform="translate(-202,-594)"
           id="g2"><path
             d="m 272.833,627.333 c 0,13.807 -9.327,25 -20.833,25 -11.506,0 -20.833,-11.193 -20.833,-25 0,-13.807 9.327,-25 20.833,-25 11.506,0 20.833,11.193 20.833,25 z"
             fill="#9bbb59"
             id="path1" /><path
             d="m 292.833,673.583 c -3.75,-7.5 -10.833,-13.75 -20,-17.5 -2.5,-0.833 -5.416,-0.833 -7.5,0.417 -4.166,2.5 -8.333,3.75 -13.333,3.75 -5,0 -9.167,-1.25 -13.333,-3.75 -2.084,-0.833 -5,-1.25 -7.5,0 -9.167,3.75 -16.25,10 -20,17.5 -2.917,5.417 1.666,11.667 7.916,11.667 h 65.834 c 6.25,0 10.833,-6.25 7.916,-12.084 z"
             fill="#9bbb59"
             id="path2" /></g></g><path
         d="m 119.60597,139.15183 c -0.66488,-0.36993 -1.50238,-0.12915 -1.87023,0.53425 l -2.553,4.59442 -1.46112,-1.46112 c -0.537,-0.537 -1.40747,-0.537 -1.94448,0 -0.537,0.537 -0.537,1.40748 0,1.94448 l 2.75035,2.75035 c 0.2599,0.26058 0.61058,0.40361 0.97224,0.40361 0.0631,0 0.12708,-0.005 0.19049,-0.013 0.42697,-0.0598 0.80171,-0.3163 1.01143,-0.69379 l 3.4379,-6.18825 c 0.36925,-0.66421 0.12993,-1.50097 -0.53355,-1.8702 z"
         id="path1-8"
         style="fill:#9bbb59;fill-opacity:1;stroke-width:0.687582" /></g></g></svg>
