<?xml version="1.0" encoding="UTF-8" standalone="no"?>
<!-- Created with Inkscape (http://www.inkscape.org/) -->

<svg
   width="24.874907mm"
   height="22.048788mm"
   viewBox="0 0 24.874907 22.048788"
   version="1.1"
   id="svg1"
   xml:space="preserve"
   inkscape:version="1.3 (0e150ed6c4, 2023-07-21)"
   sodipodi:docname="user-absent.svg"
   xmlns:inkscape="http://www.inkscape.org/namespaces/inkscape"
   xmlns:sodipodi="http://sodipodi.sourceforge.net/DTD/sodipodi-0.dtd"
   xmlns="http://www.w3.org/2000/svg"
   xmlns:svg="http://www.w3.org/2000/svg"><sodipodi:namedview
     id="namedview1"
     pagecolor="#ffffff"
     bordercolor="#000000"
     borderopacity="0.25"
     inkscape:showpageshadow="2"
     inkscape:pageopacity="0.0"
     inkscape:pagecheckerboard="0"
     inkscape:deskcolor="#d1d1d1"
     inkscape:document-units="mm"
     inkscape:zoom="2.9255612"
     inkscape:cx="28.71244"
     inkscape:cy="14.527127"
     inkscape:window-width="1920"
     inkscape:window-height="1017"
     inkscape:window-x="-8"
     inkscape:window-y="1072"
     inkscape:window-maximized="1"
     inkscape:current-layer="layer1" /><defs
     id="defs1"><clipPath
       id="clip0"><rect
         x="202"
         y="594"
         width="100"
         height="100"
         id="rect1" /></clipPath></defs><g
     inkscape:label="Calque 1"
     inkscape:groupmode="layer"
     id="layer1"
     transform="translate(-94.047788,-137.29473)"><g
       id="g4"><g
         style="overflow:hidden;fill:#d40000"
         id="g1"
         transform="matrix(0.26458333,0,0,0.26458333,91.860358,135.08996)"><g
           clip-path="url(#clip0)"
           transform="translate(-202,-594)"
           id="g2"
           style="fill:#d40000"><path
             d="m 272.833,627.333 c 0,13.807 -9.327,25 -20.833,25 -11.506,0 -20.833,-11.193 -20.833,-25 0,-13.807 9.327,-25 20.833,-25 11.506,0 20.833,11.193 20.833,25 z"
             fill="#9bbb59"
             id="path1"
             style="fill:#d40000" /><path
             d="m 292.833,673.583 c -3.75,-7.5 -10.833,-13.75 -20,-17.5 -2.5,-0.833 -5.416,-0.833 -7.5,0.417 -4.166,2.5 -8.333,3.75 -13.333,3.75 -5,0 -9.167,-1.25 -13.333,-3.75 -2.084,-0.833 -5,-1.25 -7.5,0 -9.167,3.75 -16.25,10 -20,17.5 -2.917,5.417 1.666,11.667 7.916,11.667 h 65.834 c 6.25,0 10.833,-6.25 7.916,-12.084 z"
             fill="#9bbb59"
             id="path2"
             style="fill:#d40000" /></g></g><g
         id="g3"
         transform="matrix(0.26458333,0,0,0.26458333,110.18483,139.24756)"
         style="fill:#d40000"><g
           id="Layer_1"
           style="fill:#d40000" /><g
           id="icons"
           style="fill:#d40000"><path
             class="st0"
             d="M 6.2,3.5 3.5,6.2 c -0.7,0.7 -0.7,1.9 0,2.7 l 9.2,9.2 -9.2,9.2 C 2.8,28 2.8,29.2 3.5,30 l 2.6,2.6 c 0.7,0.7 1.9,0.7 2.7,0 l 9.2,-9.2 9.2,9.2 c 0.7,0.7 1.9,0.7 2.7,0 L 32.5,30 c 0.7,-0.7 0.7,-1.9 0,-2.7 L 23.3,18 32.5,8.8 c 0.7,-0.7 0.7,-1.9 0,-2.7 L 29.9,3.5 C 29.2,2.8 28,2.8 27.2,3.5 L 18,12.7 8.8,3.5 C 8.1,2.8 6.9,2.8 6.2,3.5 Z"
             id="close_1_"
             style="fill:#d40000" /></g></g></g></g><style
     type="text/css"
     id="style1">&#10;	.st0{fill:#222A30;}&#10;	.st1{fill:none;stroke:#222A30;stroke-width:2.0101;stroke-linejoin:round;stroke-miterlimit:10;}&#10;	.st2{fill:#171715;}&#10;	.st3{fill-rule:evenodd;clip-rule:evenodd;fill:#222A30;}&#10;</style></svg>
